<svg width="798" height="932" viewBox="0 0 798 932" fill="none" xmlns="http://www.w3.org/2000/svg">
<path fill-rule="evenodd" clip-rule="evenodd" d="M147.953 252.128H652.84C640.594 167.824 588.687 109.987 522.416 79.0777L568.405 11.2673C570.256 8.53849 569.558 4.82755 566.842 2.95769L564.096 1.06718C561.376 -0.805589 557.654 -0.128293 555.768 2.58261L507.117 72.5162C440.673 46.4196 362.449 45.8388 295.733 71.1983L246.482 3.05241C244.572 0.410003 240.901 -0.22379 238.216 1.62514L235.344 3.60271C232.643 5.46211 231.935 9.145 233.754 11.873L278.228 78.5776C212.378 109.188 160.687 166.887 147.953 252.128ZM147.953 292.157H652.84V707.418C652.84 728.405 635.827 745.418 614.84 745.418H559.828V893.94C559.828 914.927 542.815 931.94 521.828 931.94H484.092C463.105 931.94 446.092 914.927 446.092 893.94V745.418H355.979V893.94C355.979 914.927 338.966 931.94 317.979 931.94H282.795C261.808 931.94 244.795 914.927 244.795 893.94V745.418H187.19C166.247 745.418 149.252 728.474 149.19 707.531L147.953 292.157ZM749.689 636.749H731.817C705.307 636.749 683.817 615.259 683.817 588.749V340.157C683.817 313.647 705.307 292.157 731.817 292.157H749.689C776.198 292.157 797.689 313.647 797.689 340.157V588.749C797.689 615.259 776.198 636.749 749.689 636.749ZM293.342 189.051C309.911 189.051 323.342 175.619 323.342 159.051C323.342 142.482 309.911 129.051 293.342 129.051C276.774 129.051 263.342 142.482 263.342 159.051C263.342 175.619 276.774 189.051 293.342 189.051ZM510.213 189.051C526.782 189.051 540.213 175.619 540.213 159.051C540.213 142.482 526.782 129.051 510.213 129.051C493.645 129.051 480.213 142.482 480.213 159.051C480.213 175.619 493.645 189.051 510.213 189.051ZM48.4031 637.107H66.2751C92.7848 637.107 114.275 615.617 114.275 589.107V340.514C114.275 314.004 92.7848 292.514 66.2751 292.514H48.4031C21.8934 292.514 0.403076 314.004 0.403076 340.514V589.107C0.403076 615.617 21.8934 637.107 48.4031 637.107Z" fill="#FFF2DB"/>
</svg>
