<svg width="51" height="51" viewBox="0 0 51 51" fill="none" xmlns="http://www.w3.org/2000/svg">
<path fill-rule="evenodd" clip-rule="evenodd" d="M50.7034 25.7573C50.7034 39.5645 39.5105 50.7573 25.7034 50.7573C11.8962 50.7573 0.703369 39.5645 0.703369 25.7573C0.703369 11.9502 11.8962 0.757324 25.7034 0.757324C39.5105 0.757324 50.7034 11.9502 50.7034 25.7573ZM16.7034 20.2573C18.7034 21.0571 19.8701 23.9238 20.2034 25.2573L32.1443 18.9187C32.3311 19.272 32.7139 19.9849 32.75 20.0093C32.7864 20.0334 34.5525 18.9541 35.4309 18.4111L35.1055 18.0022L39.3843 18.9187L43.6328 11.5574V11.1636L43.2163 10.8684L42.8225 10.9517L38.9148 17.8433L34.689 17.0935L31.917 12.3679L33.4392 8.51294L41.4062 8.77051L41.6562 8.61157V8.12671L41.4062 7.85425L32.7197 7.58154L31.2961 11.4514C31.2178 11.3049 31.0508 11.0137 31.0083 11.0198C30.9658 11.0259 29.5718 11.7795 28.8801 12.1558L29.5315 13.3789C27.5537 14.4424 25.1311 15.7422 22.9258 16.9243C19.5615 18.7275 16.7034 20.2573 16.7034 20.2573ZM33.2034 38.7573V44.2573H19.7034V38.7573H20.2034L14.2034 32.7573C14.5186 32.5996 14.8098 32.459 15.0815 32.3279C16.8779 31.4604 17.8198 31.0059 19.2034 28.7573L29.2034 38.7573H33.2034ZM13.8901 30.9194C16.6516 30.9194 18.8901 28.6809 18.8901 25.9194C18.8901 23.158 16.6516 20.9194 13.8901 20.9194C11.1287 20.9194 8.89014 23.158 8.89014 25.9194C8.89014 28.6809 11.1287 30.9194 13.8901 30.9194Z" fill="#FFF2DB"/>
</svg>
