<svg width="50" height="50" viewBox="0 0 50 50" fill="none" xmlns="http://www.w3.org/2000/svg">
<path fill-rule="evenodd" clip-rule="evenodd" d="M5 0C2.23858 0 0 2.23858 0 5V45C0 47.7614 2.23858 50 5 50H45C47.7614 50 50 47.7614 50 45V5C50 2.23858 47.7614 0 45 0H5ZM24.0417 23.9167V39.651C24.0417 40.401 23.9635 41.0417 23.8073 41.5729C23.651 42.0938 23.4219 42.4948 23.1198 42.776C22.8281 43.0573 22.4688 43.1979 22.0417 43.1979C21.6458 43.1979 21.2917 43.0938 20.9792 42.8854C20.6771 42.6771 20.4427 42.3385 20.276 41.8698C20.1094 41.401 20.026 40.7604 20.026 39.9479H15.4323C15.4323 41.5417 15.7188 42.8594 16.2917 43.901C16.8646 44.9427 17.6458 45.7188 18.6354 46.2292C19.6354 46.7292 20.7708 46.9792 22.0417 46.9792C23.2812 46.9792 24.3958 46.6875 25.3854 46.1042C26.375 45.5208 27.1562 44.6823 27.7292 43.5885C28.3125 42.4844 28.6042 41.1719 28.6042 39.651V23.9167H24.0417ZM41.7604 39.5729C41.8333 39.9062 41.8698 40.276 41.8698 40.6823C41.8698 41.1719 41.7917 41.6094 41.6354 41.9948C41.4792 42.3802 41.2188 42.6875 40.8542 42.9167C40.5 43.1458 40.0208 43.2604 39.4167 43.2604C38.8854 43.2604 38.4115 43.1927 37.9948 43.0573C37.5885 42.9115 37.2448 42.6979 36.9635 42.4167C36.6823 42.125 36.474 41.7396 36.3385 41.2604C36.2031 40.7708 36.1354 40.1823 36.1354 39.4948H31.5573C31.5573 40.7865 31.7604 41.9062 32.1667 42.8542C32.5729 43.7917 33.1302 44.5677 33.8385 45.1823C34.5573 45.7865 35.3854 46.2396 36.3229 46.5417C37.2604 46.8333 38.2552 46.9792 39.3073 46.9792C40.3906 46.9792 41.3698 46.8281 42.2448 46.526C43.1302 46.224 43.8854 45.7969 44.5104 45.2448C45.1354 44.6823 45.6094 44.0156 45.9323 43.2448C46.2656 42.4635 46.4323 41.599 46.4323 40.651C46.4323 39.6927 46.2969 38.8385 46.026 38.0885C45.7552 37.3385 45.3542 36.6667 44.8229 36.0729C44.2917 35.4688 43.6302 34.9271 42.8385 34.4479C42.0469 33.9583 41.1354 33.5104 40.1042 33.1042C39.5729 32.8958 39.0833 32.6823 38.6354 32.4635C38.1979 32.2448 37.8177 32.0208 37.4948 31.7917C37.1719 31.5521 36.9167 31.2865 36.7292 30.9948C36.5521 30.6927 36.4635 30.3542 36.4635 29.9792C36.4635 29.4792 36.5521 29.0312 36.7292 28.6354C36.9167 28.2292 37.1979 27.9115 37.5729 27.6823C37.9583 27.4427 38.4427 27.3229 39.026 27.3229C39.651 27.3229 40.1615 27.4635 40.5573 27.7448C40.9531 28.026 41.2396 28.4167 41.4167 28.9167C41.6042 29.4062 41.6979 29.974 41.6979 30.6198H46.2604C46.2604 29.2552 45.9635 28.0469 45.3698 26.9948C44.7865 25.9427 43.9583 25.1146 42.8854 24.5104C41.8229 23.9062 40.5625 23.6042 39.1042 23.6042C38.0312 23.6042 37.0573 23.7552 36.1823 24.0573C35.3177 24.3594 34.5625 24.7917 33.9167 25.3542C33.2708 25.9062 32.7708 26.5729 32.4167 27.3542C32.0729 28.1354 31.901 29.0052 31.901 29.9635C31.901 30.9427 32.0833 31.7969 32.4479 32.526C32.8229 33.2448 33.3281 33.8698 33.9635 34.401C34.599 34.9323 35.3125 35.401 36.1042 35.8073C36.8958 36.2031 37.7135 36.5781 38.5573 36.9323C39.2656 37.2344 39.8385 37.526 40.276 37.8073C40.724 38.0885 41.0625 38.3698 41.2917 38.651C41.5312 38.9323 41.6875 39.2396 41.7604 39.5729Z" fill="#FFF2DB"/>
</svg>
