<svg width="47" height="54" viewBox="0 0 47 54" fill="none" xmlns="http://www.w3.org/2000/svg">
<path fill-rule="evenodd" clip-rule="evenodd" d="M25.0237 52.8214L45.1979 41.4734C46.1378 40.9447 46.7216 39.9522 46.7271 38.8739L46.8472 15.1476C46.8527 14.0677 46.2773 13.0682 45.3406 12.5306L25.0505 0.884736C24.1303 0.356612 22.9997 0.35375 22.0769 0.877207L1.51981 12.5382C0.58046 13.0711 0 14.0677 0 15.1477V38.8485C0 39.9404 0.593261 40.9461 1.54894 41.4742L22.1018 52.8324C23.0119 53.3353 24.1175 53.3311 25.0237 52.8214ZM29.0094 34.4166L33.2127 31.9359V20.8421L30.3186 19.1884V25.5966C30.3186 25.4864 29.4458 24.9994 29.0094 24.7697L24.7372 27.1125V31.9359L29.0094 34.4166ZM28.9405 31.1091L30.3186 30.2822V28.6285L28.9405 27.8016L27.5624 28.6285V30.2822L28.9405 31.1091ZM5.30576 31.7981L2.61843 33.3141V27.0436L6.75278 24.563L10.8871 27.0436V33.3141L8.062 31.7981V28.6974L6.75278 27.8705L5.30576 28.6974V31.7981ZM21.981 31.7981L17.8466 34.2098L13.6434 31.7981V27.0436L17.8466 24.563L21.981 27.0436V31.7981ZM19.2248 30.3511L17.8466 31.178L16.4685 30.3511V28.6974L17.8466 27.8705L19.2248 28.6974V30.3511ZM40.0344 34.2788L42.8595 32.6939L38.7251 30.2822V28.6285L40.1033 27.8705L41.4814 28.6285V30.2822L44.3065 28.6285V27.1466L40.1033 24.7008L35.9 27.1466V32.0049L40.0344 34.2788ZM40.1033 30.3511L40.8612 29.8688V28.973L40.1033 28.4907L39.2764 28.973V29.8688L40.1033 30.3511Z" fill="#FFF2DB"/>
</svg>
