<svg width="226" height="260" viewBox="0 0 226 260" fill="none" xmlns="http://www.w3.org/2000/svg">
<path d="M46.6497 169.354L2.57819 62.37L109.569 59.4239L46.6497 169.354Z" fill="#040C0E"/>
<path d="M113.286 61.5202L50.0937 172.968H177.77L113.286 61.5202Z" fill="#040C0E"/>
<path d="M115.584 259.139L51.5299 178.425H176.478L115.584 259.139Z" fill="#040C0E"/>
<path d="M45.3543 178.425L103.376 252.245L4.71036 194.798L45.3543 178.425Z" fill="#040C0E"/>
<path d="M182.797 178.425L126.642 252.245L221.236 194.798L182.797 178.425Z" fill="#040C0E"/>
<path d="M225.76 62.37L181.755 169.354L117.215 59.4239L225.76 62.37Z" fill="#040C0E"/>
<path d="M115.281 0.425781L219.051 59.4239L115.281 54.4399V0.425781Z" fill="#040C0E"/>
<path d="M111.674 0.425781V54.4399L7.46353 59.4239L111.674 0.425781Z" fill="#040C0E"/>
<path d="M43.3554 174.911L0.867188 72.4738V190.238L43.3554 174.911Z" fill="#040C0E"/>
<path d="M225.76 72.4738L185.371 174.911L225.76 190.238V72.4738Z" fill="#040C0E"/>
</svg>
